<?xml version="1.0" encoding="UTF-8" standalone="no"?>
<!-- Generator: Adobe Illustrator 16.0.0, SVG Export Plug-In . SVG Version: 6.00 Build 0)  -->

<svg
   xmlns:dc="http://purl.org/dc/elements/1.1/"
   xmlns:cc="http://creativecommons.org/ns#"
   xmlns:rdf="http://www.w3.org/1999/02/22-rdf-syntax-ns#"
   xmlns:svg="http://www.w3.org/2000/svg"
   xmlns="http://www.w3.org/2000/svg"
   xmlns:xlink="http://www.w3.org/1999/xlink"
   xmlns:sodipodi="http://sodipodi.sourceforge.net/DTD/sodipodi-0.dtd"
   xmlns:inkscape="http://www.inkscape.org/namespaces/inkscape"
   version="1.1"
   id="Layer_1"
   x="0px"
   y="0px"
   width="285.417px"
   height="263.542px"
   viewBox="0 0 285.417 263.542"
   enable-background="new 0 0 285.417 263.542"
   xml:space="preserve"
   inkscape:version="0.91 r13725"
   sodipodi:docname="scarpa-1.svg"><metadata
     id="metadata93"><rdf:RDF><cc:Work
         rdf:about=""><dc:format>image/svg+xml</dc:format><dc:type
           rdf:resource="http://purl.org/dc/dcmitype/StillImage" /><dc:title></dc:title></cc:Work></rdf:RDF></metadata><defs
     id="defs91"><defs
       id="defs4620"><rect
         height="300"
         width="300"
         y="-3.783"
         x="-3.4790001"
         id="SVGID_1_-3" /></defs><clipPath
       id="SVGID_2_-3"><use
         id="use4624"
         overflow="visible"
         xlink:href="#SVGID_1_-3"
         style="overflow:visible"
         x="0"
         y="0"
         width="100%"
         height="100%" /></clipPath><defs
       id="defs4628"><rect
         id="SVGID_3_-7"
         x="-3.4790001"
         y="-3.783"
         width="300"
         height="300" /></defs><clipPath
       id="SVGID_4_-7"><use
         height="100%"
         width="100%"
         y="0"
         x="0"
         style="overflow:visible"
         xlink:href="#SVGID_3_-7"
         overflow="visible"
         id="use4632" /></clipPath><defs
       id="defs4636"><rect
         height="300"
         width="300"
         y="-3.783"
         x="-3.4790001"
         id="SVGID_5_-7" /></defs><clipPath
       id="SVGID_6_-5"><use
         id="use4640"
         overflow="visible"
         xlink:href="#SVGID_5_-7"
         style="overflow:visible"
         x="0"
         y="0"
         width="100%"
         height="100%" /></clipPath></defs><sodipodi:namedview
     pagecolor="#ffffff"
     bordercolor="#666666"
     borderopacity="1"
     objecttolerance="10"
     gridtolerance="10"
     guidetolerance="10"
     inkscape:pageopacity="0"
     inkscape:pageshadow="2"
     inkscape:window-width="1440"
     inkscape:window-height="851"
     id="namedview89"
     showgrid="false"
     inkscape:zoom="2.6902734"
     inkscape:cx="142.7085"
     inkscape:cy="131.771"
     inkscape:window-x="0"
     inkscape:window-y="1"
     inkscape:window-maximized="1"
     inkscape:current-layer="Layer_1" /><path
     inkscape:connector-curvature="0"
     style="fill:#92c9d2;fill-opacity:1;stroke:#92c9d2;stroke-width:2.46980262;stroke-opacity:1"
     d="m 189.73019,50.903794 3.77508,0.95182 c 3.6132,0.9098 12.93892,5.195503 15.11642,6.94647 0.77947,0.626762 -0.12855,2.215029 -3.66239,6.407174 -7.1668,8.501826 -18.31595,23.580788 -22.89598,30.965324 -10.32719,16.650838 -14.28989,27.465048 -16.54718,45.156088 l -1.49715,11.73172 -7.60047,8.26454 c -5.34991,5.81693 -9.55397,9.46833 -14.18875,12.32535 -7.79272,4.80369 -23.20073,11.28195 -36.65209,15.41022 -5.31028,1.62975 -9.943637,2.9801 -10.296958,3.00236 -0.35331,0.0211 -2.679582,-1.11213 -5.169609,-2.5174 -6.590124,-3.71924 -8.800559,-4.20506 -22.735007,-4.99855 -13.905578,-0.79187 -20.14673,-2.34515 -28.538476,-7.10143 l -4.823491,-2.73471 9.441725,-3.98436 c 8.563095,-3.61448 20.516875,-8.01098 21.781166,-8.01098 0.2768,0 0.962402,2.88379 1.523318,6.40918 1.086069,6.82603 2.032729,8.70322 4.394865,8.70322 2.746644,0 3.520286,-1.97378 2.444952,-6.24418 -0.539372,-2.14175 -0.836665,-4.03788 -0.66205,-4.21175 0.174708,-0.1739 2.584166,1.40801 5.354744,3.51348 6.768788,5.14387 12.820684,7.9429 14.836712,6.86397 2.007466,-1.07442 1.970591,-3.86898 -0.06038,-4.5136 -2.035119,-0.6459 -10.560485,-6.31459 -14.249111,-9.47594 l -2.829305,-2.42483 5.024728,0.36223 c 6.882915,0.49786 13.0181,-1.45003 20.664347,-6.56414 15.39205,-10.29484 29.72288,-31.74407 31.30138,-46.84643 1.25453,-12.002689 -7.02078,-25.763878 -17.84913,-29.679455 -1.56023,-0.564177 -2.83736,-1.334293 -2.83736,-1.712469 0,-1.153472 3.87495,-6.837372 5.99869,-8.799802 4.94446,-4.568937 11.86135,-5.359869 30.75,-3.515495 16.64748,1.625551 28.54073,-1.531574 36.76881,-9.759671 l 3.91795,-3.917954 z"
     id="path4516" /><path
     style="fill:#f9f9f9;fill-opacity:1;stroke:#f9f9f9;stroke-width:1.03029931;stroke-miterlimit:4;stroke-dasharray:none;stroke-opacity:1"
     d="m 190.59146,59.007339 c -1.18545,-0.104865 -3.00078,0.782112 -5.1032,2.628068 -4.46252,3.918145 -12.79492,7.519182 -18.61784,8.047201 -2.76757,0.250933 -12.77171,-0.01579 -22.23192,-0.593629 -19.12689,-1.168241 -21.42902,-0.960886 -21.42902,1.941873 0,1.918296 0.12315,1.940832 16.58138,2.929913 31.43058,1.888906 36.19361,1.137453 47.85458,-7.544125 3.23987,-2.412083 4.40896,-3.82992 4.40896,-5.352726 0,-1.293622 -0.54093,-1.975014 -1.46294,-2.056575 z"
     id="path4514"
     inkscape:connector-curvature="0" /><path
     inkscape:connector-curvature="0"
     style="fill:#92c9d2;fill-opacity:1;stroke:#92c9d2;stroke-width:2.46980262;stroke-opacity:1"
     d="m 214.94435,62.862912 3.63824,2.613983 3.63825,2.611969 -1.7004,2.386592 c -2.74121,3.849681 -7.26698,14.237668 -9.31696,21.38676 -2.67307,9.322044 -2.71089,28.359654 -0.0724,36.271764 l 1.7668,5.29639 -1.81711,0.68821 c -0.99884,0.37914 -7.86102,2.61902 -15.24923,4.97642 -7.38702,2.35702 -15.69699,5.39573 -18.46892,6.75329 l -0.002,0 c -6.03564,2.95669 -6.29763,3.00374 -6.29248,1.12689 0.006,-2.86112 2.57492,-17.48657 3.86966,-22.03874 3.72197,-13.08603 17.08216,-34.548378 34.60965,-55.593911 l 5.397,-6.479617 z"
     id="path4512" /><path
     inkscape:connector-curvature="0"
     style="fill:#92c9d2;fill-opacity:1;stroke:#92c9d2;stroke-width:2.46980262;stroke-opacity:1"
     d="m 110.76338,83.108696 c 1.84199,-0.02864 6.98369,3.056312 9.62686,5.863852 6.80356,7.226717 8.58583,16.506582 5.09717,26.538262 -4.93991,14.20467 -19.45538,31.41235 -31.564993,37.41676 -4.9401,2.44951 -7.168802,3.07279 -10.965043,3.07279 -2.620288,0 -5.412801,-0.47449 -6.205946,-1.05445 -1.331579,-0.97367 -1.257089,-1.2769 0.977981,-3.95417 l 2.420801,-2.89973 2.704536,2.27591 c 3.093381,2.6029 5.547884,2.8832 7.755423,0.88541 2.513982,-2.27516 1.903056,-5.24571 -1.778883,-8.64485 l -3.316276,-3.06071 1.845286,-2.2417 1.847296,-2.2397 4.680619,2.94601 c 3.994635,2.51357 5.008955,2.82143 6.904209,2.10084 2.34771,-0.89261 3.60846,-3.87781 2.76289,-6.54199 -0.27278,-0.85939 -2.55209,-2.80953 -5.064968,-4.33249 l -4.569934,-2.76893 1.318051,-2.76289 1.318062,-2.76289 5.058939,2.05456 c 5.78517,2.35073 8.59672,2.06247 10.00315,-1.02426 1.54451,-3.38983 -0.15207,-5.73879 -5.75317,-7.9647 -2.69727,-1.07191 -4.98655,-1.9993 -5.0871,-2.0606 -0.10046,-0.0612 0.23195,-1.46047 0.73851,-3.11102 l 0.92163,-3.00236 4.29828,1.145 c 2.36445,0.6296 5.12148,1.14992 6.12746,1.15507 2.54092,0.0138 4.46732,-2.17279 4.46732,-5.069 0,-2.94126 -2.03354,-4.405035 -8.04519,-5.791409 l -4.26809,-0.984016 2.26585,-6.419248 c 1.2461,-3.530335 2.6658,-6.551802 3.15529,-6.715056 0.0917,-0.03058 0.20118,-0.04638 0.32398,-0.04829 z"
     id="path4510" /><path
     style="fill:#f9f9f9;fill-opacity:1;stroke:#f9f9f9;stroke-width:1.03029931;stroke-miterlimit:4;stroke-dasharray:none;stroke-opacity:1"
     d="m 202.9148,87.250016 c -0.18532,0.0066 -0.38649,0.02539 -0.60369,0.05635 -2.4656,0.351453 -8.72393,9.405525 -14.1143,20.418834 -4.44913,9.09021 -6.93329,17.33329 -6.51785,21.62622 0.44588,4.60739 4.87984,3.63282 4.87984,-1.07255 0,-6.11405 5.6408,-19.11315 13.46432,-31.027702 4.85106,-7.38778 5.67155,-10.099304 2.89168,-10.001147 z"
     id="path4508"
     inkscape:connector-curvature="0" /><path
     style="fill:#f9f9f9;fill-opacity:1;stroke:#f9f9f9;stroke-width:1.03029931;stroke-miterlimit:4;stroke-dasharray:none;stroke-opacity:1"
     d="m 144.09611,100.48833 c -1.34455,0.0502 -2.30268,2.15009 -2.81118,6.22002 -1.37329,10.99143 -7.42933,24.85835 -14.26925,32.67377 -4.00231,4.57313 -4.64639,6.49302 -2.46306,7.33083 2.30825,0.88576 2.70065,0.62383 7.0813,-4.73697 7.48448,-9.15911 13.32942,-23.0731 14.74012,-35.08249 0.43666,-3.71711 0.27598,-4.87054 -0.80693,-5.76928 -0.5321,-0.4416 -1.02281,-0.65263 -1.471,-0.63588 z"
     id="path4506"
     inkscape:connector-curvature="0" /><path
     style="fill:#f9f9f9;fill-opacity:1;stroke:#f9f9f9;stroke-width:0.92726934;stroke-miterlimit:4;stroke-dasharray:none;stroke-opacity:1"
     d="m 118.23209,149.77694 c -1.37359,0.0461 -3.55352,1.46636 -7.07525,4.44719 -2.96036,2.50569 -7.02493,5.37598 -9.03323,6.379 -2.836837,1.41678 -3.594807,2.22681 -3.394754,3.6302 0.410749,2.88201 3.249634,2.56642 8.681074,-0.96189 7.65468,-4.97252 13.23029,-10.3666 12.54067,-12.13418 -0.3592,-0.92065 -0.89434,-1.38795 -1.71851,-1.36032 z"
     id="path3650"
     inkscape:connector-curvature="0" /><path
     style="fill:#85acca;fill-opacity:1;stroke:#85acca;stroke-width:2.46980262;stroke-opacity:1"
     d="m 212.9904,133.55513 2.54557,5.44127 c 1.40015,2.99205 2.54556,5.73654 2.54556,6.1013 0,0.36474 -1.04027,1.0496 -2.31012,1.5213 -23.12916,8.59154 -37.04432,14.86665 -41.57821,18.74863 -1.48948,1.27533 -2.99208,2.33261 -3.33842,2.35239 -0.73274,0.0397 -0.83877,-14.63469 -0.12476,-17.29575 0.67087,-2.50031 9.02684,-6.19321 27.27677,-12.05571 z m -49.06197,19.60788 0.57553,10.3855 0.57753,10.3855 -3.84149,3.41688 c -13.16558,11.71532 -31.20063,20.38325 -48.10613,23.11936 -3.46324,0.56053 -6.86353,1.1299 -7.55619,1.26574 -4.35545,0.85334 -5.683463,0.414 -6.783472,-2.24171 -0.611256,-1.47565 -2.21298,-3.9358 -3.557758,-5.46742 -1.344777,-1.53166 -1.903426,-2.57818 -1.241593,-2.32422 1.714665,0.65796 19.430323,-4.86179 31.444253,-9.79791 1.21373,-0.49867 2.29533,-0.97525 3.40885,-1.4569 l 9.23299,-3.06378 5.74458,-4.84457 c 4.4549,-3.03793 8.27584,-6.50935 12.54671,-11.15621 z"
     id="path3648"
     inkscape:connector-curvature="0"
     sodipodi:nodetypes="ccssscsccccccsccsssccccc" /><path
     style="fill:#d68d3a;fill-opacity:1;stroke:#d68d3a;stroke-width:2.46980262;stroke-opacity:1"
     d="m 12.182653,199.71765 c 28.443566,-0.32717 59.405111,-0.21514 75.376862,-5.02473 0.864102,0.63943 1.737116,1.23404 2.563673,2.0606 6.309636,6.30966 6.129395,6.40158 -15.609436,7.91641 -5.772046,0.40221 -18.428922,0.60024 -28.125965,0.44069 -18.372215,-0.30225 -26.424684,0.66959 -33.766453,-2.57803 -0.814317,-0.36021 0.06512,-2.5389 -0.438681,-2.81494 z"
     id="path4500"
     inkscape:connector-curvature="0"
     sodipodi:nodetypes="ccssssc" /><path
     inkscape:connector-curvature="0"
     style="fill:#e59d48;fill-opacity:1;stroke:#e59d48;stroke-width:2.46980262;stroke-opacity:1"
     d="m 28.397792,177.82983 c 0.375833,0 3.065872,1.48811 5.978559,3.30621 8.838258,5.5168 16.821532,7.71202 30.902942,8.49796 12.673711,0.70736 17.994393,1.8875 22.280222,5.05892 l -75.376862,5.02473 c -1.692483,-0.92737 -2.3161536,-1.70319 -2.3161536,-4.01857 -1.03e-5,-4.31109 3.5608276,-8.54307 11.6049516,-13.79435 3.43307,-2.24111 6.550488,-4.0749 6.926341,-4.0749 z"
     id="path4495" /><path
     style="fill:#d68d3a;fill-opacity:1;stroke:#d68d3a;stroke-width:2.46980262;stroke-opacity:1"
     d="m 218.1419,130.48234 c 12.1032,-12.09801 21.13242,-25.33562 27.81204,-38.748912 1.47937,1.785603 3.02546,3.634155 3.8596,4.851663 5.14821,7.514249 5.39127,6.026569 -3.00235,18.277749 -7.10634,10.37223 -16.22467,21.83366 -20.02443,25.16989 -2.94095,2.58219 -3.04071,2.6062 -4.17553,0.98603 -1.18651,-1.69397 -2.90715,-6.02339 -4.46933,-10.53642 z"
     id="path4493"
     inkscape:connector-curvature="0"
     sodipodi:nodetypes="ccssssc" /><path
     inkscape:connector-curvature="0"
     style="fill:#e59d48;fill-opacity:1;stroke:#e59d48;stroke-width:2.46980262;stroke-opacity:1"
     d="m 226.79078,72.041027 c 1.37797,-0.0031 12.52959,11.685649 19.16316,19.692401 L 218.1419,130.48234 c -1.09021,-3.14954 -2.18585,-6.46376 -2.62404,-8.71931 -1.654,-8.514 -0.65951,-23.527913 2.09682,-31.667617 2.68089,-7.916928 7.83147,-18.051913 9.1761,-18.054386 z"
     id="path3646" /><path
     style="fill:#e6e6e6;fill-rule:evenodd;stroke:none;stroke-width:1px;stroke-linecap:butt;stroke-linejoin:miter;stroke-opacity:1"
     d="m 276.33362,121.47006 c -7.38403,28.03584 -53.66093,43.64622 -85.40275,60.89254 -18.62921,11.21844 -52.80972,33.74137 -58.59471,34.46748 -3.41859,1.69026 -63.49128,5.90271 -66.254151,4.59566 -2.119954,0.63702 -39.62018,-5.7457 -52.147929,-14.5686 l 10.403983,14.95157 34.850451,6.51052 57.445786,0 31.78668,-9.5743 27.19101,-15.70184 27.57398,-14.93591 32.55262,-13.40402 23.36129,-16.08483 17.99969,-22.97831 z"
     id="path4518"
     inkscape:connector-curvature="0"
     sodipodi:nodetypes="ccccccccccccccc" /><path
     inkscape:connector-curvature="0"
     id="path3638"
     d="m 183.02867,230.94879 c 39.00181,-0.23068 40.92905,-0.31433 40.92905,-1.77722 0,-1.447 -1.67196,-1.56711 -29.10235,-2.09095 -16.0063,-0.30564 -35.5578,-0.56035 -43.44776,-0.56599 l -14.34543,-0.0103 6.55804,-2.86307 c 8.03543,-3.50808 14.56048,-7.35613 32.24544,-19.01631 16.59521,-10.94126 24.96994,-15.08948 43.05462,-21.32566 12.30214,-4.24218 26.46065,-10.39271 27.68456,-12.02631 0.24253,-0.32377 2.70789,-2.25728 5.47847,-4.29666 13.3726,-9.8434 22.93078,-20.66151 26.36504,-29.84043 4.78744,-12.79555 -0.23784,-24.1319 -14.48178,-32.66877 -3.55534,-2.13085 -6.02064,-4.516875 -8.94442,-8.656833 -9.4696,-13.408583 -22.20429,-26.154444 -35.68208,-35.713345 -7.44273,-5.278635 -20.73206,-11.448054 -28.45234,-13.208677 -3.14933,-0.718219 -3.41955,-0.598705 -7.61164,3.36597 -8.85064,8.370581 -17.88723,10.685551 -35.658,9.134812 -21.064,-1.838101 -27.92648,-0.299537 -34.88734,7.82184 -5.01748,5.853975 -12.3485,23.689556 -11.08768,26.975183 1.13803,2.965665 2.95274,1.299561 4.68444,-4.300864 2.49149,-8.057633 2.60181,-8.175738 6.45054,-6.905544 4.47901,1.478202 10.73719,7.61502 12.90535,12.655072 3.71323,8.631616 2.9996,15.925036 -2.65745,27.159696 -11.17388,22.19093 -32.246832,37.60502 -45.452425,33.2468 -3.62347,-1.19587 -3.729148,-1.79245 -0.960384,-5.42247 2.517743,-3.30094 2.545581,-3.55456 0.509473,-4.64426 -1.370545,-0.73348 -2.158755,-0.0704 -5.723148,4.81488 l -4.133705,5.66553 -10.018805,3.64901 c -22.17915,8.078 -38.236519,16.50618 -46.129488,24.21238 -7.1200995,6.95161 -7.6477776,11.91939 -2.3719034,22.33085 4.1250604,8.14042 11.1242134,14.1518 20.6440144,17.73059 l 5.031137,1.89134 -4.840171,0.49955 c -5.388167,0.55613 -7.233062,1.65793 -5.566954,3.3248 1.084534,1.08503 63.46587,1.42073 159.015079,0.85574 z M 64.439362,226.49586 c -19.108096,-1.45743 -36.01335,-5.68687 -42.861914,-10.72338 -3.899054,-2.86737 -8.826409,-8.81933 -7.631025,-9.21777 0.461728,-0.15388 2.829057,0.31099 5.26076,1.03314 11.202506,3.32677 36.837022,3.63525 69.159922,0.83225 26.820925,-2.3259 39.835625,-5.34542 54.152305,-12.56387 9.66747,-4.87432 17.26044,-10.40238 27.45307,-19.98727 9.81223,-9.22715 14.58662,-11.9384 34.27324,-19.46271 15.77992,-6.03119 21.3295,-8.94056 27.08162,-14.19766 4.88454,-4.46425 17.26023,-20.53379 23.08235,-29.97201 1.95285,-3.16572 3.86114,-5.75909 4.24068,-5.76307 1.4834,-0.0148 8.20433,4.46375 11.50705,7.66893 4.37881,4.24949 5.85583,7.76576 5.84543,13.91587 -0.0148,8.85322 -6.46419,19.0599 -18.31408,28.98416 -13.53659,11.33687 -22.15215,16.01022 -42.23646,22.91054 -17.05959,5.86108 -26.54327,10.76221 -46.65862,24.11288 -8.67882,5.76016 -18.12337,11.65522 -20.98787,13.10008 -11.09855,5.59815 -23.38248,7.94775 -48.524281,9.28144 -18.681026,0.99096 -22.417386,0.99614 -34.842177,0.0484 z m -43.23787,-22.96743 c -6.20096,-1.75674 -10.538303,-3.85966 -11.6098765,-5.62888 -0.4461196,-0.73662 -0.5397429,-2.43676 -0.2079556,-3.77805 0.7679131,-3.10512 8.7881751,-10.94845 14.6431181,-14.32012 l 4.504345,-2.5939 5.760692,3.5517 c 9.40756,5.80015 17.391215,7.98444 32.186293,8.80597 13.173582,0.73154 17.710391,1.78903 22.331119,5.20528 3.633598,2.68646 6.458338,7.35456 4.996859,8.25779 -0.605208,0.37403 -5.476793,0.92922 -10.825767,1.23372 -5.348974,0.3045 -10.103218,0.70411 -10.564978,0.88799 -0.46178,0.18375 -11.040357,0.21537 -23.507968,0.0698 -18.199979,-0.21215 -23.66138,-0.54565 -27.70583,-1.69146 z m 77.333328,-3.35728 c -1.746801,-4.18064 -6.752201,-9.33865 -10.999939,-11.33533 -5.42568,-2.55037 -9.84347,-3.34883 -23.266126,-4.20511 -12.883677,-0.82188 -19.070264,-2.46153 -27.146934,-7.19479 -3.615898,-2.11905 -3.87984,-2.46967 -2.576573,-3.42264 1.865779,-1.3643 26.620121,-11.18665 29.790785,-11.8208 2.328549,-0.4657 2.425469,-0.34958 2.996265,3.59008 1.051245,7.25579 2.295898,11.20767 3.529867,11.20767 1.869015,0 2.191375,-2.03984 1.130156,-7.15169 -0.540691,-2.6045 -0.778484,-4.94005 -0.52842,-5.19011 0.250044,-0.25005 2.590574,1.44908 5.201188,3.77588 2.610603,2.32678 7.011053,5.4375 9.778787,6.91268 4.562639,2.43187 5.154649,2.55973 6.344109,1.37028 1.080537,-1.08055 1.121409,-1.54141 0.231663,-2.61338 -0.594081,-0.71585 -1.479809,-1.30151 -1.968263,-1.30151 -1.597387,0 -11.015909,-6.56998 -14.428312,-10.0646 l -3.335841,-3.4162 2.743512,0.95641 c 4.822409,1.68109 13.462622,0.64081 19.528355,-2.35123 14.441621,-7.1236 29.020311,-24.46965 34.987841,-41.62929 5.19234,-14.9306 -1.19682,-30.55909 -15.10376,-36.945209 -2.19338,-1.007186 -3.98796,-2.124352 -3.98796,-2.482547 0,-1.413443 4.1608,-7.127999 7.01387,-9.632995 5.2997,-4.653233 8.9408,-5.082262 29.12396,-3.431667 18.78184,1.53597 28.00466,-0.718516 36.87254,-9.013372 4.02573,-3.76561 4.3968,-3.926566 8.09187,-3.510083 4.10839,0.463063 17.96705,6.83829 17.96705,8.265144 0,0.464496 -2.33317,3.555454 -5.18486,6.868744 -11.07874,12.87219 -23.02886,30.280273 -29.25967,42.623465 -7.44547,14.74936 -10.19782,28.14746 -10.40953,50.67217 l -0.14127,15.0343 -6.67738,5.3858 c -14.84362,11.97249 -29.89598,18.50169 -49.80568,21.60401 -3.98525,0.62098 -7.71309,1.16564 -8.28411,1.21038 -0.57099,0.0447 -1.573239,-1.19929 -2.227221,-2.76446 z m 70.85083,-40.34911 c 0,-10.84569 1.96793,-26.65708 4.28967,-34.46539 2.50266,-8.41674 8.17268,-19.4035 16.24817,-31.483874 6.90641,-10.331529 19.34824,-26.373243 23.23368,-29.956038 l 1.98505,-1.830444 3.86524,2.869441 3.86525,2.869441 -4.37832,8.734334 c -10.50726,20.960918 -11.17924,42.81008 -1.93358,62.86878 2.23008,4.83821 2.47041,5.91517 1.46427,6.56122 -0.66204,0.4251 -6.11521,2.67569 -12.11814,5.0013 -6.00291,2.32559 -13.71605,5.42707 -17.14031,6.89219 -6.30457,2.69744 -15.345,8.0962 -16.39069,9.78814 -0.31386,0.50787 -1.1151,0.92338 -1.78048,0.92338 -0.97617,0 -1.20981,-1.69411 -1.20981,-8.77248 z m 50.53673,-23.02649 c -8.664,-19.37664 -7.70512,-39.657843 2.82219,-59.691325 1.70516,-3.244901 3.42149,-5.89984 3.81412,-5.89984 1.36024,0 16.32275,15.561782 21.09582,21.940713 7.76705,10.380312 7.7125,9.401942 1.0819,19.402122 -10.42586,15.7241 -22.40915,30.02063 -25.16312,30.02063 -0.58845,0 -2.23137,-2.59754 -3.65091,-5.7723 z M 86.315933,136.60167 c 0.841837,-1.57299 0.760557,-2.0551 -0.502106,-2.97839 -1.292129,-0.94481 -1.677914,-0.85694 -2.710635,0.6175 -0.662276,0.94552 -1.07113,1.8016 -0.90859,1.9024 0.162509,0.10076 0.93035,0.66749 1.706217,1.25927 1.199876,0.91518 1.560811,0.7955 2.415114,-0.80078 z m 8.223386,-13.45642 c 0.933235,-1.49433 0.931906,-1.91017 -0.0072,-2.50586 -1.866779,-1.18317 -3.081327,-0.83848 -3.678828,1.04405 -0.355227,1.11927 -0.141759,2.05292 0.573094,2.50584 1.628965,1.03216 1.866902,0.95238 3.113657,-1.04403 z m 6.022341,-14.63462 c 1.05295,-2.76946 1.0958,-2.61557 -0.871319,-3.12998 -1.893329,-0.4951 -3.791171,2.07632 -3.018519,4.08982 0.740219,1.92901 3.003869,1.37044 3.889838,-0.95984 z"
     style="fill:#63639b;fill-opacity:1;stroke:#63639b;stroke-width:3.0908978;stroke-miterlimit:4;stroke-dasharray:none;stroke-opacity:1" /><path
     style="fill:none;fill-rule:evenodd;stroke:#63639b;stroke-width:7.21209526;stroke-linecap:round;stroke-linejoin:miter;stroke-miterlimit:4;stroke-dasharray:none;stroke-opacity:1"
     d="m 190.9964,48.716459 c -3.12219,-7.913895 0.48733,-12.205078 8.14118,-14.319781"
     id="path4582"
     inkscape:connector-curvature="0"
     sodipodi:nodetypes="cc" /></svg>